<svg width="16" height="18" viewBox="0 0 16 18" fill="none" xmlns="http://www.w3.org/2000/svg">
<path d="M11.3337 14.8644V13.5311C11.3337 12.8238 11.0527 12.1455 10.5526 11.6454C10.0525 11.1454 9.37424 10.8644 8.66699 10.8644H3.33366C2.62641 10.8644 1.94814 11.1454 1.44804 11.6454C0.947944 12.1455 0.666992 12.8238 0.666992 13.5311V14.8644" stroke="#FF8B35" stroke-width="1.2" stroke-linecap="round" stroke-linejoin="round"/>
<path d="M5.99967 8.19777C7.47243 8.19777 8.66634 7.00387 8.66634 5.53111C8.66634 4.05835 7.47243 2.86444 5.99967 2.86444C4.52692 2.86444 3.33301 4.05835 3.33301 5.53111C3.33301 7.00387 4.52692 8.19777 5.99967 8.19777Z" stroke="#FF8B35" stroke-width="1.2" stroke-linecap="round" stroke-linejoin="round"/>
<path d="M15.333 14.8643V13.5309C15.3326 12.9401 15.1359 12.3661 14.7739 11.8991C14.4119 11.4322 13.9051 11.0986 13.333 10.9509" stroke="#FF8B35" stroke-width="1.2" stroke-linecap="round" stroke-linejoin="round"/>
<path d="M10.667 2.95087C11.2406 3.09773 11.749 3.43133 12.1121 3.89907C12.4752 4.36681 12.6722 4.94209 12.6722 5.5342C12.6722 6.12631 12.4752 6.70159 12.1121 7.16932C11.749 7.63706 11.2406 7.97066 10.667 8.11753" stroke="#FF8B35" stroke-width="1.2" stroke-linecap="round" stroke-linejoin="round"/>
</svg>
