<svg width="15" height="16" viewBox="0 0 15 16" fill="none" xmlns="http://www.w3.org/2000/svg">
<path fill-rule="evenodd" clip-rule="evenodd" d="M11.8536 1.93673C11.6583 1.74147 11.3417 1.74147 11.1465 1.93673L3.71455 9.36864C3.62459 9.4586 3.55263 9.56489 3.50251 9.68183L2.04044 13.0933C1.9599 13.2813 2.00189 13.4993 2.14646 13.6439C2.29103 13.7884 2.50905 13.8304 2.69697 13.7499L6.10847 12.2878C6.2254 12.2377 6.3317 12.1657 6.42166 12.0758L13.8536 4.64383C14.0488 4.44857 14.0488 4.13199 13.8536 3.93673L11.8536 1.93673ZM4.42166 10.0758L11.5 2.99739L12.7929 4.29028L5.71455 11.3687L4.21924 12.0095L3.78081 11.5711L4.42166 10.0758Z" fill="#CCCCCC"/>
</svg>
